<svg width="44" height="44" viewBox="0 0 44 44" fill="none" xmlns="http://www.w3.org/2000/svg">
<g clip-path="url(#clip0_27_60)">
<rect width="44" height="44" fill="#FBFBFB"/>
<path d="M4.34128 41C3.98361 41 3.6617 40.88 3.37556 40.64C3.12519 40.4 3 40.0914 3 39.7143V6.28572C3 5.90857 3.12519 5.6 3.37556 5.36C3.6617 5.12 3.98361 5 4.34128 5H9.33085C9.86736 5 10.2608 5.13714 10.5112 5.41143C10.7973 5.68572 10.994 5.89143 11.1013 6.02857L20.9732 23.4629L30.9523 6.02857C31.0238 5.89143 31.1848 5.68572 31.4352 5.41143C31.7213 5.13714 32.1326 5 32.6691 5H37.6587C38.0522 5 38.3741 5.12 38.6244 5.36C38.8748 5.6 39 5.90857 39 6.28572V39.7143C39 40.0914 38.8748 40.4 38.6244 40.64C38.3741 40.88 38.0522 41 37.6587 41H32.1863C31.8286 41 31.5246 40.88 31.2742 40.64C31.0238 40.4 30.8987 40.0914 30.8987 39.7143V18.9371L24.0849 31.1771C23.9061 31.4857 23.6736 31.76 23.3875 32C23.1013 32.24 22.7258 32.36 22.2608 32.36H19.7392C19.2742 32.36 18.8987 32.24 18.6125 32C18.3264 31.76 18.0939 31.4857 17.9151 31.1771L11.1013 18.9371V39.7143C11.1013 40.0914 10.9762 40.4 10.7258 40.64C10.4754 40.88 10.1714 41 9.81371 41H4.34128Z" fill="#101820"/>
<path d="M5.34128 40C4.98361 40 4.6617 39.88 4.37556 39.64C4.12519 39.4 4 39.0914 4 38.7143V5.28572C4 4.90857 4.12519 4.6 4.37556 4.36C4.6617 4.12 4.98361 4 5.34128 4H10.3308C10.8674 4 11.2608 4.13714 11.5112 4.41143C11.7973 4.68572 11.994 4.89143 12.1013 5.02857L21.9732 22.4629L31.9523 5.02857C32.0238 4.89143 32.1848 4.68572 32.4352 4.41143C32.7213 4.13714 33.1326 4 33.6691 4H38.6587C39.0522 4 39.3741 4.12 39.6244 4.36C39.8748 4.6 40 4.90857 40 5.28572V38.7143C40 39.0914 39.8748 39.4 39.6244 39.64C39.3741 39.88 39.0522 40 38.6587 40H33.1863C32.8286 40 32.5246 39.88 32.2742 39.64C32.0238 39.4 31.8987 39.0914 31.8987 38.7143V17.9371L25.0849 30.1771C24.9061 30.4857 24.6736 30.76 24.3875 31C24.1013 31.24 23.7258 31.36 23.2608 31.36H20.7392C20.2742 31.36 19.8987 31.24 19.6125 31C19.3264 30.76 19.0939 30.4857 18.9151 30.1771L12.1013 17.9371V38.7143C12.1013 39.0914 11.9762 39.4 11.7258 39.64C11.4754 39.88 11.1714 40 10.8137 40H5.34128Z" fill="url(#paint0_linear_27_60)"/>
<path d="M6.15798 15.6239C9.86307 14.0024 16.9182 16.0451 19.9826 17.2691C22.3909 17.7079 23.5024 17.2771 23.7572 17.0069C28.265 15.2106 37.7346 12.9867 39.5501 18.4614C41.3656 23.9361 37.2499 27.4349 34.9651 28.5C29.3148 30.4552 25.4939 27.9992 23.7572 27.1885C22.3678 26.5399 20.4612 26.9183 19.6816 27.1885C16.3701 29.0007 8.77007 31.2707 4.8612 25.8532C0.952325 20.4357 4.09702 16.7764 6.15798 15.6239Z" fill="#101820"/>
<path d="M18.2458 22.2527C18.2458 24.4519 16.0673 25.9486 13.1513 25.9486C10.2354 25.9486 7.87158 24.1364 7.87158 20.8458C7.87158 18.6466 10.2336 17.913 13.1513 18.7714C15.5828 19.7013 18.2458 20.0535 18.2458 22.2527Z" fill="#FBFBFB"/>
<path d="M25.0076 22.2447C25.0076 24.4439 27.1862 25.9406 30.1021 25.9406C33.018 25.9406 35.3819 24.1284 35.3819 20.8378C35.3819 18.6386 33.0199 17.9049 30.1021 18.7633C27.6706 19.6933 25.0076 20.0454 25.0076 22.2447Z" fill="#FBFBFB"/>
</g>
<defs>
<linearGradient id="paint0_linear_27_60" x1="4" y1="40" x2="40" y2="4" gradientUnits="userSpaceOnUse">
<stop stop-color="#280F50"/>
<stop offset="1" stop-color="#641AAD"/>
</linearGradient>
<clipPath id="clip0_27_60">
<rect width="44" height="44" fill="white"/>
</clipPath>
</defs>
</svg>
