<svg width="194" height="45" viewBox="0 0 194 45" fill="none" xmlns="http://www.w3.org/2000/svg">
<path d="M1.54878 44.02C1.13577 44.02 0.764065 43.8753 0.433659 43.586C0.144553 43.2967 0 42.9247 0 42.47V2.17C0 1.71533 0.144553 1.34333 0.433659 1.054C0.764065 0.764667 1.13577 0.619999 1.54878 0.619999H7.31024C7.92976 0.619999 8.38407 0.785333 8.67317 1.116C9.00358 1.44667 9.23073 1.69467 9.35464 1.86L20.7537 22.878L32.2766 1.86C32.3592 1.69467 32.545 1.44667 32.8341 1.116C33.1646 0.785333 33.6395 0.619999 34.259 0.619999H40.0205C40.4748 0.619999 40.8465 0.764667 41.1356 1.054C41.4247 1.34333 41.5693 1.71533 41.5693 2.17V42.47C41.5693 42.9247 41.4247 43.2967 41.1356 43.586C40.8465 43.8753 40.4748 44.02 40.0205 44.02H33.7015C33.2885 44.02 32.9374 43.8753 32.6483 43.586C32.3592 43.2967 32.2146 42.9247 32.2146 42.47V17.422L24.3468 32.178C24.1403 32.55 23.8719 32.8807 23.5415 33.17C23.2111 33.4593 22.7774 33.604 22.2405 33.604H19.3288C18.7919 33.604 18.3582 33.4593 18.0278 33.17C17.6974 32.8807 17.4289 32.55 17.2224 32.178L9.35464 17.422V42.47C9.35464 42.9247 9.21008 43.2967 8.92098 43.586C8.63187 43.8753 8.28081 44.02 7.86781 44.02H1.54878Z" fill="#FBFBFB"/>
<path d="M59.5559 44.64C57.367 44.64 55.4052 44.2267 53.6706 43.4C51.9359 42.532 50.5524 41.3747 49.5198 39.928C48.4873 38.4813 47.9711 36.8693 47.9711 35.092C47.9711 32.1573 49.1481 29.8427 51.5023 28.148C53.8977 26.4533 57.0366 25.296 60.9189 24.676L69.0345 23.498V22.382C69.0345 20.77 68.6628 19.53 67.9194 18.662C67.1759 17.794 65.875 17.36 64.0164 17.36C62.6535 17.36 61.559 17.6287 60.733 18.166C59.907 18.7033 59.2668 19.406 58.8125 20.274C58.4821 20.8113 58.0072 21.08 57.3876 21.08H51.5023C51.048 21.08 50.6969 20.956 50.4491 20.708C50.2013 20.4187 50.098 20.088 50.1393 19.716C50.1393 19.0133 50.4078 18.1867 50.9447 17.236C51.4816 16.2853 52.3076 15.3553 53.4228 14.446C54.5379 13.4953 55.9628 12.71 57.6974 12.09C59.432 11.47 61.559 11.16 64.0784 11.16C66.6803 11.16 68.9106 11.47 70.7691 12.09C72.6276 12.71 74.1145 13.578 75.2296 14.694C76.3447 15.81 77.1707 17.112 77.7076 18.6C78.2446 20.0467 78.513 21.6173 78.513 23.312V42.47C78.513 42.9247 78.3685 43.2967 78.0794 43.586C77.7903 43.8753 77.4185 44.02 76.9642 44.02H70.893C70.48 44.02 70.1289 43.8753 69.8398 43.586C69.5507 43.2967 69.4062 42.9247 69.4062 42.47V40.176C68.8693 40.9613 68.1465 41.7053 67.2379 42.408C66.3293 43.0693 65.2348 43.6067 63.9545 44.02C62.7155 44.4333 61.2493 44.64 59.5559 44.64ZM62.034 38.192C63.3969 38.192 64.6153 37.9027 65.6891 37.324C66.7629 36.7453 67.6096 35.8567 68.2291 34.658C68.8486 33.4593 69.1584 31.9507 69.1584 30.132V29.078L63.3969 30.008C61.1667 30.38 59.5353 30.938 58.5028 31.682C57.4702 32.426 56.954 33.3353 56.954 34.41C56.954 35.1953 57.1811 35.8773 57.6354 36.456C58.1311 37.0347 58.7712 37.4687 59.5559 37.758C60.3407 38.0473 61.1667 38.192 62.034 38.192Z" fill="#FBFBFB"/>
<path d="M87.5008 44.02C87.0878 44.02 86.7367 43.8753 86.4476 43.586C86.1585 43.2967 86.014 42.9247 86.014 42.47V13.33C86.014 12.9167 86.1585 12.5653 86.4476 12.276C86.7367 11.9453 87.0878 11.78 87.5008 11.78H93.572C93.985 11.78 94.3361 11.9453 94.6252 12.276C94.9556 12.5653 95.1208 12.9167 95.1208 13.33V15.81C96.1533 14.5287 97.413 13.5367 98.8998 12.834C100.428 12.1313 102.183 11.78 104.166 11.78H106.83C107.243 11.78 107.594 11.9247 107.883 12.214C108.172 12.5033 108.316 12.8753 108.316 13.33V18.662C108.316 19.1167 108.172 19.4887 107.883 19.778C107.594 20.0673 107.243 20.212 106.83 20.212H101.378C99.5606 20.212 98.1357 20.7287 97.1032 21.762C96.0707 22.754 95.5544 24.18 95.5544 26.04V42.47C95.5544 42.9247 95.4099 43.2967 95.1208 43.586C94.8317 43.8753 94.46 44.02 94.0057 44.02H87.5008Z" fill="#FBFBFB"/>
<path d="M124.335 44.02C123.716 44.02 123.241 43.8753 122.91 43.586C122.621 43.2553 122.373 42.8833 122.167 42.47L110.52 13.702C110.437 13.5367 110.396 13.3507 110.396 13.144C110.396 12.772 110.52 12.462 110.768 12.214C111.057 11.9247 111.387 11.78 111.759 11.78H117.768C118.305 11.78 118.698 11.9247 118.945 12.214C119.234 12.5033 119.42 12.772 119.503 13.02L127.123 33.48L134.743 13.02C134.867 12.772 135.053 12.5033 135.301 12.214C135.59 11.9247 135.982 11.78 136.478 11.78H142.487C142.859 11.78 143.168 11.9247 143.416 12.214C143.705 12.462 143.85 12.772 143.85 13.144C143.85 13.3507 143.829 13.5367 143.788 13.702L132.079 42.47C131.914 42.8833 131.666 43.2553 131.336 43.586C131.005 43.8753 130.53 44.02 129.911 44.02H124.335Z" fill="#FBFBFB"/>
<path d="M162.277 44.64C157.528 44.64 153.749 43.3173 150.94 40.672C148.173 38.0267 146.707 34.1827 146.542 29.14C146.542 28.8093 146.542 28.3753 146.542 27.838C146.542 27.2593 146.542 26.8047 146.542 26.474C146.707 23.2913 147.43 20.5633 148.71 18.29C149.99 15.9753 151.787 14.2187 154.1 13.02C156.413 11.78 159.118 11.16 162.215 11.16C165.685 11.16 168.576 11.8833 170.889 13.33C173.243 14.7353 174.998 16.678 176.154 19.158C177.352 21.5967 177.951 24.4073 177.951 27.59V29.016C177.951 29.4293 177.786 29.7807 177.455 30.07C177.166 30.3593 176.815 30.504 176.402 30.504H156.144C156.144 30.5453 156.144 30.628 156.144 30.752C156.144 30.8347 156.144 30.9173 156.144 31C156.185 32.3227 156.433 33.542 156.888 34.658C157.383 35.7327 158.065 36.6007 158.932 37.262C159.841 37.9233 160.914 38.254 162.153 38.254C163.186 38.254 164.033 38.1093 164.693 37.82C165.354 37.5307 165.891 37.1793 166.304 36.766C166.758 36.3527 167.089 36.0013 167.295 35.712C167.667 35.2987 167.956 35.0507 168.163 34.968C168.411 34.844 168.782 34.782 169.278 34.782H175.721C176.134 34.782 176.464 34.906 176.712 35.154C177.001 35.3607 177.125 35.6707 177.084 36.084C177.042 36.7453 176.691 37.572 176.031 38.564C175.411 39.5147 174.482 40.4653 173.243 41.416C172.004 42.3253 170.455 43.09 168.596 43.71C166.779 44.33 164.673 44.64 162.277 44.64ZM156.144 24.862H168.287V24.738C168.287 23.25 168.039 21.9687 167.543 20.894C167.089 19.778 166.407 18.91 165.499 18.29C164.59 17.67 163.496 17.36 162.215 17.36C160.935 17.36 159.841 17.67 158.932 18.29C158.023 18.91 157.321 19.778 156.826 20.894C156.371 21.9687 156.144 23.25 156.144 24.738V24.862Z" fill="#FBFBFB"/>
<path d="M185.692 44.02C185.238 44.02 184.866 43.8753 184.577 43.586C184.288 43.2967 184.144 42.9247 184.144 42.47V1.55C184.144 1.09533 184.288 0.723334 184.577 0.434002C184.866 0.144667 185.238 0 185.692 0H191.888C192.301 0 192.652 0.144667 192.941 0.434002C193.23 0.723334 193.374 1.09533 193.374 1.55V42.47C193.374 42.9247 193.23 43.2967 192.941 43.586C192.652 43.8753 192.301 44.02 191.888 44.02H185.692Z" fill="#FBFBFB"/>
</svg>
