<svg width="224" height="124" viewBox="0 0 224 124" fill="none" xmlns="http://www.w3.org/2000/svg">
<g filter="url(#filter0_d_27_104)">
<path d="M16.8616 83.7C16.4485 83.7 16.0768 83.5553 15.7464 83.266C15.4573 82.9767 15.3128 82.6047 15.3128 82.15V41.85C15.3128 41.3953 15.4573 41.0233 15.7464 40.734C16.0768 40.4447 16.4485 40.3 16.8616 40.3H22.623C23.2425 40.3 23.6968 40.4653 23.9859 40.796C24.3164 41.1267 24.5435 41.3747 24.6674 41.54L36.0664 62.558L47.5894 41.54C47.672 41.3747 47.8578 41.1267 48.1469 40.796C48.4773 40.4653 48.9523 40.3 49.5718 40.3H55.3333C55.7876 40.3 56.1593 40.4447 56.4484 40.734C56.7375 41.0233 56.882 41.3953 56.882 41.85V82.15C56.882 82.6047 56.7375 82.9767 56.4484 83.266C56.1593 83.5553 55.7876 83.7 55.3333 83.7H49.0142C48.6012 83.7 48.2502 83.5553 47.9611 83.266C47.672 82.9767 47.5274 82.6047 47.5274 82.15V57.102L39.6596 71.858C39.4531 72.23 39.1846 72.5607 38.8542 72.85C38.5238 73.1393 38.0902 73.284 37.5533 73.284H34.6416C34.1046 73.284 33.671 73.1393 33.3406 72.85C33.0102 72.5607 32.7417 72.23 32.5352 71.858L24.6674 57.102V82.15C24.6674 82.6047 24.5229 82.9767 24.2338 83.266C23.9446 83.5553 23.5936 83.7 23.1806 83.7H16.8616Z" fill="url(#paint0_linear_27_104)"/>
<path d="M74.8687 84.32C72.6798 84.32 70.718 83.9067 68.9833 83.08C67.2487 82.212 65.8651 81.0547 64.8326 79.608C63.8001 78.1613 63.2838 76.5493 63.2838 74.772C63.2838 71.8373 64.4609 69.5227 66.8151 67.828C69.2105 66.1333 72.3494 64.976 76.2316 64.356L84.3472 63.178V62.062C84.3472 60.45 83.9755 59.21 83.2321 58.342C82.4887 57.474 81.1877 57.04 79.3292 57.04C77.9663 57.04 76.8718 57.3087 76.0458 57.846C75.2198 58.3833 74.5796 59.086 74.1253 59.954C73.7949 60.4913 73.3199 60.76 72.7004 60.76H66.8151C66.3607 60.76 66.0097 60.636 65.7619 60.388C65.5141 60.0987 65.4108 59.768 65.4521 59.396C65.4521 58.6933 65.7206 57.8667 66.2575 56.916C66.7944 55.9653 67.6204 55.0353 68.7355 54.126C69.8507 53.1753 71.2755 52.39 73.0102 51.77C74.7448 51.15 76.8718 50.84 79.3912 50.84C81.9931 50.84 84.2234 51.15 86.0819 51.77C87.9404 52.39 89.4272 53.258 90.5424 54.374C91.6575 55.49 92.4835 56.792 93.0204 58.28C93.5573 59.7267 93.8258 61.2973 93.8258 62.992V82.15C93.8258 82.6047 93.6812 82.9767 93.3921 83.266C93.103 83.5553 92.7313 83.7 92.277 83.7H86.2058C85.7928 83.7 85.4417 83.5553 85.1526 83.266C84.8635 82.9767 84.719 82.6047 84.719 82.15V79.856C84.182 80.6413 83.4593 81.3853 82.5507 82.088C81.642 82.7493 80.5476 83.2867 79.2673 83.7C78.0282 84.1133 76.562 84.32 74.8687 84.32ZM77.3468 77.872C78.7097 77.872 79.9281 77.5827 81.0019 77.004C82.0757 76.4253 82.9224 75.5367 83.5419 74.338C84.1614 73.1393 84.4712 71.6307 84.4712 69.812V68.758L78.7097 69.688C76.4794 70.06 74.8481 70.618 73.8155 71.362C72.783 72.106 72.2668 73.0153 72.2668 74.09C72.2668 74.8753 72.4939 75.5573 72.9482 76.136C73.4438 76.7147 74.084 77.1487 74.8687 77.438C75.6534 77.7273 76.4794 77.872 77.3468 77.872Z" fill="url(#paint1_linear_27_104)"/>
<path d="M102.814 83.7C102.401 83.7 102.049 83.5553 101.76 83.266C101.471 82.9767 101.327 82.6047 101.327 82.15V53.01C101.327 52.5967 101.471 52.2453 101.76 51.956C102.049 51.6253 102.401 51.46 102.814 51.46H108.885C109.298 51.46 109.649 51.6253 109.938 51.956C110.268 52.2453 110.434 52.5967 110.434 53.01V55.49C111.466 54.2087 112.726 53.2167 114.213 52.514C115.741 51.8113 117.496 51.46 119.478 51.46H122.142C122.555 51.46 122.906 51.6047 123.196 51.894C123.485 52.1833 123.629 52.5553 123.629 53.01V58.342C123.629 58.7967 123.485 59.1687 123.196 59.458C122.906 59.7473 122.555 59.892 122.142 59.892H116.691C114.873 59.892 113.449 60.4087 112.416 61.442C111.383 62.434 110.867 63.86 110.867 65.72V82.15C110.867 82.6047 110.723 82.9767 110.434 83.266C110.144 83.5553 109.773 83.7 109.318 83.7H102.814Z" fill="url(#paint2_linear_27_104)"/>
<path d="M139.648 83.7C139.028 83.7 138.553 83.5553 138.223 83.266C137.934 82.9353 137.686 82.5633 137.48 82.15L125.833 53.382C125.75 53.2167 125.709 53.0307 125.709 52.824C125.709 52.452 125.833 52.142 126.081 51.894C126.37 51.6047 126.7 51.46 127.072 51.46H133.081C133.618 51.46 134.01 51.6047 134.258 51.894C134.547 52.1833 134.733 52.452 134.816 52.7L142.436 73.16L150.056 52.7C150.18 52.452 150.365 52.1833 150.613 51.894C150.902 51.6047 151.295 51.46 151.79 51.46H157.8C158.171 51.46 158.481 51.6047 158.729 51.894C159.018 52.142 159.163 52.452 159.163 52.824C159.163 53.0307 159.142 53.2167 159.101 53.382L147.392 82.15C147.227 82.5633 146.979 82.9353 146.648 83.266C146.318 83.5553 145.843 83.7 145.224 83.7H139.648Z" fill="url(#paint3_linear_27_104)"/>
<path d="M177.59 84.32C172.841 84.32 169.062 82.9973 166.253 80.352C163.486 77.7067 162.02 73.8627 161.855 68.82C161.855 68.4893 161.855 68.0553 161.855 67.518C161.855 66.9393 161.855 66.4847 161.855 66.154C162.02 62.9713 162.742 60.2433 164.023 57.97C165.303 55.6553 167.1 53.8987 169.413 52.7C171.725 51.46 174.431 50.84 177.528 50.84C180.997 50.84 183.889 51.5633 186.201 53.01C188.555 54.4153 190.311 56.358 191.467 58.838C192.665 61.2767 193.264 64.0873 193.264 67.27V68.696C193.264 69.1093 193.099 69.4607 192.768 69.75C192.479 70.0393 192.128 70.184 191.715 70.184H171.457C171.457 70.2253 171.457 70.308 171.457 70.432C171.457 70.5147 171.457 70.5973 171.457 70.68C171.498 72.0027 171.746 73.222 172.2 74.338C172.696 75.4127 173.377 76.2807 174.245 76.942C175.153 77.6033 176.227 77.934 177.466 77.934C178.499 77.934 179.345 77.7893 180.006 77.5C180.667 77.2107 181.204 76.8593 181.617 76.446C182.071 76.0327 182.402 75.6813 182.608 75.392C182.98 74.9787 183.269 74.7307 183.475 74.648C183.723 74.524 184.095 74.462 184.591 74.462H191.034C191.447 74.462 191.777 74.586 192.025 74.834C192.314 75.0407 192.438 75.3507 192.396 75.764C192.355 76.4253 192.004 77.252 191.343 78.244C190.724 79.1947 189.795 80.1453 188.555 81.096C187.316 82.0053 185.768 82.77 183.909 83.39C182.092 84.01 179.986 84.32 177.59 84.32ZM171.457 64.542H183.599V64.418C183.599 62.93 183.352 61.6487 182.856 60.574C182.402 59.458 181.72 58.59 180.812 57.97C179.903 57.35 178.809 57.04 177.528 57.04C176.248 57.04 175.153 57.35 174.245 57.97C173.336 58.59 172.634 59.458 172.138 60.574C171.684 61.6487 171.457 62.93 171.457 64.418V64.542Z" fill="url(#paint4_linear_27_104)"/>
<path d="M201.005 83.7C200.551 83.7 200.179 83.5553 199.89 83.266C199.601 82.9767 199.456 82.6047 199.456 82.15V41.23C199.456 40.7753 199.601 40.4033 199.89 40.114C200.179 39.8247 200.551 39.68 201.005 39.68H207.2C207.613 39.68 207.964 39.8247 208.254 40.114C208.543 40.4033 208.687 40.7753 208.687 41.23V82.15C208.687 82.6047 208.543 82.9767 208.254 83.266C207.964 83.5553 207.613 83.7 207.2 83.7H201.005Z" fill="url(#paint5_linear_27_104)"/>
</g>
<defs>
<filter id="filter0_d_27_104" x="14.3128" y="39.68" width="194.374" height="45.64" filterUnits="userSpaceOnUse" color-interpolation-filters="sRGB">
<feFlood flood-opacity="0" result="BackgroundImageFix"/>
<feColorMatrix in="SourceAlpha" type="matrix" values="0 0 0 0 0 0 0 0 0 0 0 0 0 0 0 0 0 0 127 0" result="hardAlpha"/>
<feOffset dx="-1" dy="1"/>
<feComposite in2="hardAlpha" operator="out"/>
<feColorMatrix type="matrix" values="0 0 0 0 0.0627451 0 0 0 0 0.0941176 0 0 0 0 0.12549 0 0 0 1 0"/>
<feBlend mode="normal" in2="BackgroundImageFix" result="effect1_dropShadow_27_104"/>
<feBlend mode="normal" in="SourceGraphic" in2="effect1_dropShadow_27_104" result="shape"/>
</filter>
<linearGradient id="paint0_linear_27_104" x1="15.3128" y1="84.32" x2="34.8801" y2="-0.442946" gradientUnits="userSpaceOnUse">
<stop stop-color="#280F50"/>
<stop offset="1" stop-color="#641AAD"/>
</linearGradient>
<linearGradient id="paint1_linear_27_104" x1="15.3128" y1="84.32" x2="34.8801" y2="-0.442946" gradientUnits="userSpaceOnUse">
<stop stop-color="#280F50"/>
<stop offset="1" stop-color="#641AAD"/>
</linearGradient>
<linearGradient id="paint2_linear_27_104" x1="15.3128" y1="84.32" x2="34.8801" y2="-0.442946" gradientUnits="userSpaceOnUse">
<stop stop-color="#280F50"/>
<stop offset="1" stop-color="#641AAD"/>
</linearGradient>
<linearGradient id="paint3_linear_27_104" x1="15.3128" y1="84.32" x2="34.8801" y2="-0.442946" gradientUnits="userSpaceOnUse">
<stop stop-color="#280F50"/>
<stop offset="1" stop-color="#641AAD"/>
</linearGradient>
<linearGradient id="paint4_linear_27_104" x1="15.3128" y1="84.32" x2="34.8801" y2="-0.442946" gradientUnits="userSpaceOnUse">
<stop stop-color="#280F50"/>
<stop offset="1" stop-color="#641AAD"/>
</linearGradient>
<linearGradient id="paint5_linear_27_104" x1="15.3128" y1="84.32" x2="34.8801" y2="-0.442946" gradientUnits="userSpaceOnUse">
<stop stop-color="#280F50"/>
<stop offset="1" stop-color="#641AAD"/>
</linearGradient>
</defs>
</svg>
