<?xml version="1.0" encoding="UTF-8"?>
<svg id="Layer_1" data-name="Layer 1" xmlns="http://www.w3.org/2000/svg" xmlns:xlink="http://www.w3.org/1999/xlink" viewBox="0 0 194.69 45.96">
  <defs>
    <style>
      .cls-1 {
        fill: url(#linear-gradient);
      }

      .cls-1, .cls-2, .cls-3, .cls-4, .cls-5, .cls-6, .cls-7 {
        stroke-width: 0px;
      }

      .cls-2 {
        fill: url(#linear-gradient-4);
      }

      .cls-3 {
        fill: url(#linear-gradient-2);
      }

      .cls-4 {
        fill: url(#linear-gradient-3);
      }

      .cls-5 {
        fill: url(#linear-gradient-5);
      }

      .cls-6 {
        fill: url(#linear-gradient-6);
      }

      .cls-7 {
        fill: #0d051b;
      }
    </style>
    <linearGradient id="linear-gradient" x1="16.15" y1="-1.43" x2="35.72" y2="83.34" gradientTransform="translate(0 46.64) scale(1 -1)" gradientUnits="userSpaceOnUse">
      <stop offset="0" stop-color="#280f50"/>
      <stop offset="1" stop-color="#641aad"/>
    </linearGradient>
    <linearGradient id="linear-gradient-2" x1="59.4" y1="-11.41" x2="78.97" y2="73.35" gradientTransform="translate(0 46.64) scale(1 -1)" gradientUnits="userSpaceOnUse">
      <stop offset="0" stop-color="#280f50"/>
      <stop offset="1" stop-color="#641aad"/>
    </linearGradient>
    <linearGradient id="linear-gradient-3" x1="87.29" y1="-17.85" x2="106.86" y2="66.92" gradientTransform="translate(0 46.64) scale(1 -1)" gradientUnits="userSpaceOnUse">
      <stop offset="0" stop-color="#280f50"/>
      <stop offset="1" stop-color="#641aad"/>
    </linearGradient>
    <linearGradient id="linear-gradient-4" x1="115.11" y1="-24.27" x2="134.68" y2="60.49" gradientTransform="translate(0 46.64) scale(1 -1)" gradientUnits="userSpaceOnUse">
      <stop offset="0" stop-color="#280f50"/>
      <stop offset="1" stop-color="#641aad"/>
    </linearGradient>
    <linearGradient id="linear-gradient-5" x1="151.85" y1="-32.75" x2="171.42" y2="52.01" gradientTransform="translate(0 46.64) scale(1 -1)" gradientUnits="userSpaceOnUse">
      <stop offset="0" stop-color="#280f50"/>
      <stop offset="1" stop-color="#641aad"/>
    </linearGradient>
    <linearGradient id="linear-gradient-6" x1="175.56" y1="-38.22" x2="195.13" y2="46.54" gradientTransform="translate(0 46.64) scale(1 -1)" gradientUnits="userSpaceOnUse">
      <stop offset="0" stop-color="#280f50"/>
      <stop offset="1" stop-color="#641aad"/>
    </linearGradient>
  </defs>
  <path class="cls-7" d="m1.55,45.34c-.41,0-.78-.14-1.12-.43-.29-.29-.43-.66-.43-1.12V3.49c0-.45.14-.83.43-1.12.33-.29.7-.43,1.12-.43h5.76c.62,0,1.07.17,1.36.5.33.33.56.58.68.74l11.4,21.02L32.28,3.18c.08-.17.27-.41.56-.74.33-.33.81-.5,1.42-.5h5.76c.45,0,.83.14,1.12.43s.43.66.43,1.12v40.3c0,.45-.14.83-.43,1.12s-.66.43-1.12.43h-6.32c-.41,0-.76-.14-1.05-.43s-.43-.66-.43-1.12v-25.05l-7.87,14.76c-.21.37-.47.7-.81.99s-.76.43-1.3.43h-2.91c-.54,0-.97-.14-1.3-.43-.33-.29-.6-.62-.81-.99l-7.87-14.76v25.05c0,.45-.14.83-.43,1.12-.29.29-.64.43-1.05.43H1.55Z"/>
  <path class="cls-7" d="m59.56,45.96c-2.19,0-4.15-.41-5.89-1.24-1.73-.87-3.12-2.03-4.15-3.47-1.03-1.45-1.55-3.06-1.55-4.84,0-2.93,1.18-5.25,3.53-6.94,2.4-1.69,5.53-2.85,9.42-3.47l8.12-1.18v-1.12c0-1.61-.37-2.85-1.12-3.72-.74-.87-2.04-1.3-3.9-1.3-1.36,0-2.46.27-3.28.81-.83.54-1.47,1.24-1.92,2.11-.33.54-.81.81-1.42.81h-5.89c-.45,0-.81-.12-1.05-.37-.25-.29-.35-.62-.31-.99,0-.7.27-1.53.81-2.48.54-.95,1.36-1.88,2.48-2.79,1.12-.95,2.54-1.74,4.27-2.36,1.73-.62,3.86-.93,6.38-.93s4.83.31,6.69.93c1.86.62,3.35,1.49,4.46,2.6,1.12,1.12,1.94,2.42,2.48,3.91.54,1.45.81,3.02.81,4.71v19.16c0,.45-.14.83-.43,1.12s-.66.43-1.12.43h-6.07c-.41,0-.76-.14-1.05-.43s-.43-.66-.43-1.12v-2.29c-.54.79-1.26,1.53-2.17,2.23-.91.66-2,1.2-3.28,1.61-1.24.41-2.71.62-4.4.62Zm2.48-6.45c1.36,0,2.58-.29,3.66-.87,1.07-.58,1.92-1.47,2.54-2.67.62-1.2.93-2.71.93-4.53v-1.05l-5.76.93c-2.23.37-3.86.93-4.89,1.67-1.03.74-1.55,1.65-1.55,2.73,0,.79.23,1.47.68,2.05.5.58,1.14,1.01,1.92,1.3.78.29,1.61.43,2.48.43Z"/>
  <path class="cls-7" d="m87.5,45.34c-.41,0-.76-.14-1.05-.43s-.43-.66-.43-1.12V14.65c0-.41.14-.76.43-1.05.29-.33.64-.5,1.05-.5h6.07c.41,0,.76.17,1.05.5.33.29.5.64.5,1.05v2.48c1.03-1.28,2.29-2.27,3.78-2.98,1.53-.7,3.28-1.05,5.27-1.05h2.66c.41,0,.76.14,1.05.43.29.29.43.66.43,1.12v5.33c0,.45-.14.83-.43,1.12-.29.29-.64.43-1.05.43h-5.45c-1.82,0-3.24.52-4.28,1.55-1.03.99-1.55,2.42-1.55,4.28v16.43c0,.45-.14.83-.43,1.12s-.66.43-1.12.43h-6.5Z"/>
  <path class="cls-7" d="m124.34,45.34c-.62,0-1.09-.14-1.43-.43-.29-.33-.54-.7-.74-1.12l-11.65-28.77c-.08-.17-.12-.35-.12-.56,0-.37.12-.68.37-.93.29-.29.62-.43.99-.43h6.01c.54,0,.93.14,1.18.43.29.29.47.56.56.81l7.62,20.46,7.62-20.46c.12-.25.31-.52.56-.81.29-.29.68-.43,1.18-.43h6.01c.37,0,.68.14.93.43.29.25.43.56.43.93,0,.21-.02.39-.06.56l-11.71,28.77c-.16.41-.41.79-.74,1.12-.33.29-.81.43-1.43.43h-5.58Z"/>
  <path class="cls-7" d="m162.28,45.96c-4.75,0-8.53-1.32-11.34-3.97-2.77-2.65-4.23-6.49-4.4-11.53v-2.67c.16-3.18.89-5.91,2.17-8.18,1.28-2.31,3.08-4.07,5.39-5.27,2.31-1.24,5.02-1.86,8.11-1.86,3.47,0,6.36.72,8.67,2.17,2.35,1.41,4.11,3.35,5.26,5.83,1.2,2.44,1.8,5.25,1.8,8.43v1.43c0,.41-.17.76-.5,1.05-.29.29-.64.43-1.05.43h-20.26v.5c.04,1.32.29,2.54.74,3.66.49,1.07,1.18,1.94,2.04,2.6.91.66,1.98.99,3.22.99,1.03,0,1.88-.14,2.54-.43.66-.29,1.2-.64,1.61-1.05.45-.41.79-.76.99-1.05.37-.41.66-.66.87-.74.25-.12.62-.19,1.12-.19h6.44c.41,0,.74.12.99.37.29.21.41.52.37.93-.04.66-.39,1.49-1.05,2.48-.62.95-1.55,1.9-2.79,2.85-1.24.91-2.79,1.67-4.65,2.29-1.82.62-3.92.93-6.32.93Zm-6.13-19.78h12.14v-.12c0-1.49-.25-2.77-.74-3.84-.45-1.12-1.14-1.98-2.04-2.6-.91-.62-2-.93-3.28-.93s-2.37.31-3.28.93c-.91.62-1.61,1.49-2.11,2.6-.46,1.07-.68,2.36-.68,3.84v.12Z"/>
  <path class="cls-7" d="m185.69,45.34c-.45,0-.83-.14-1.12-.43s-.43-.66-.43-1.12V2.87c0-.45.14-.83.43-1.12.29-.29.66-.43,1.12-.43h6.2c.41,0,.76.14,1.05.43.29.29.43.66.43,1.12v40.92c0,.45-.14.83-.43,1.12s-.64.43-1.05.43h-6.2Z"/>
  <path class="cls-1" d="m2.86,44.02c-.41,0-.78-.14-1.12-.43-.29-.29-.43-.66-.43-1.12V2.17c0-.45.14-.83.43-1.12.33-.29.7-.43,1.12-.43h5.76c.62,0,1.07.17,1.36.5.33.33.56.58.68.74l11.4,21.02L33.59,1.86c.08-.17.27-.41.56-.74.33-.33.81-.5,1.42-.5h5.76c.45,0,.83.14,1.12.43.29.29.43.66.43,1.12v40.3c0,.45-.14.83-.43,1.12-.29.29-.66.43-1.12.43h-6.32c-.41,0-.76-.14-1.05-.43-.29-.29-.43-.66-.43-1.12v-25.05l-7.87,14.76c-.21.37-.47.7-.81.99-.33.29-.76.43-1.3.43h-2.91c-.54,0-.97-.14-1.3-.43-.33-.29-.6-.62-.81-.99l-7.87-14.76v25.05c0,.45-.14.83-.43,1.12-.29.29-.64.43-1.05.43H2.86Z"/>
  <path class="cls-3" d="m60.87,44.64c-2.19,0-4.15-.41-5.89-1.24-1.73-.87-3.12-2.03-4.15-3.47-1.03-1.45-1.55-3.06-1.55-4.84,0-2.93,1.18-5.25,3.53-6.94,2.4-1.69,5.53-2.85,9.42-3.47l8.12-1.18v-1.12c0-1.61-.37-2.85-1.12-3.72s-2.04-1.3-3.9-1.3c-1.36,0-2.46.27-3.28.81-.83.54-1.47,1.24-1.92,2.11-.33.54-.81.81-1.42.81h-5.89c-.45,0-.81-.12-1.05-.37-.25-.29-.35-.62-.31-.99,0-.7.27-1.53.81-2.48s1.36-1.88,2.48-2.79c1.12-.95,2.54-1.74,4.27-2.36,1.73-.62,3.86-.93,6.38-.93s4.83.31,6.69.93c1.86.62,3.35,1.49,4.46,2.6,1.12,1.12,1.94,2.42,2.48,3.91.54,1.45.81,3.02.81,4.71v19.16c0,.45-.14.83-.43,1.12s-.66.43-1.12.43h-6.07c-.41,0-.76-.14-1.05-.43s-.43-.66-.43-1.12v-2.29c-.54.79-1.26,1.53-2.17,2.23-.91.66-2,1.2-3.28,1.61-1.24.41-2.71.62-4.4.62Zm2.48-6.45c1.36,0,2.58-.29,3.66-.87,1.07-.58,1.92-1.47,2.54-2.67s.93-2.71.93-4.53v-1.05l-5.76.93c-2.23.37-3.86.93-4.89,1.67-1.03.74-1.55,1.65-1.55,2.73,0,.79.23,1.47.68,2.05.5.58,1.14,1.01,1.92,1.3.78.29,1.61.43,2.48.43Z"/>
  <path class="cls-4" d="m88.81,44.02c-.41,0-.76-.14-1.05-.43s-.43-.66-.43-1.12V13.33c0-.41.14-.76.43-1.05.29-.33.64-.5,1.05-.5h6.07c.41,0,.76.17,1.05.5.33.29.5.64.5,1.05v2.48c1.03-1.28,2.29-2.27,3.78-2.98,1.53-.7,3.28-1.05,5.26-1.05h2.66c.41,0,.76.14,1.05.43.29.29.43.66.43,1.12v5.33c0,.45-.14.83-.43,1.12-.29.29-.64.43-1.05.43h-5.45c-1.82,0-3.24.52-4.28,1.55-1.03.99-1.55,2.42-1.55,4.28v16.43c0,.45-.14.83-.43,1.12-.29.29-.66.43-1.12.43h-6.5Z"/>
  <path class="cls-2" d="m125.65,44.02c-.62,0-1.1-.14-1.42-.43-.29-.33-.54-.7-.74-1.12l-11.65-28.77c-.08-.17-.12-.35-.12-.56,0-.37.12-.68.37-.93.29-.29.62-.43.99-.43h6.01c.54,0,.93.14,1.18.43.29.29.48.56.56.81l7.62,20.46,7.62-20.46c.12-.25.31-.52.56-.81.29-.29.68-.43,1.18-.43h6.01c.37,0,.68.14.93.43.29.25.43.56.43.93,0,.21-.02.39-.06.56l-11.71,28.77c-.16.41-.41.79-.74,1.12-.33.29-.8.43-1.42.43h-5.58Z"/>
  <path class="cls-5" d="m163.59,44.64c-4.75,0-8.53-1.32-11.34-3.97-2.77-2.65-4.23-6.49-4.4-11.53v-2.67c.17-3.18.89-5.91,2.17-8.18,1.28-2.31,3.08-4.07,5.39-5.27,2.31-1.24,5.02-1.86,8.12-1.86,3.47,0,6.36.72,8.67,2.17,2.35,1.41,4.11,3.35,5.27,5.83,1.2,2.44,1.8,5.25,1.8,8.43v1.43c0,.41-.17.76-.5,1.05-.29.29-.64.43-1.05.43h-20.26v.5c.04,1.32.29,2.54.74,3.66.5,1.07,1.18,1.94,2.04,2.6.91.66,1.98.99,3.22.99,1.03,0,1.88-.14,2.54-.43.66-.29,1.2-.64,1.61-1.05.45-.41.78-.76.99-1.05.37-.41.66-.66.87-.74.25-.12.62-.19,1.12-.19h6.44c.41,0,.74.12.99.37.29.21.41.52.37.93-.04.66-.39,1.49-1.05,2.48-.62.95-1.55,1.9-2.79,2.85-1.24.91-2.79,1.67-4.65,2.29-1.82.62-3.92.93-6.32.93Zm-6.13-19.78h12.14v-.12c0-1.49-.25-2.77-.74-3.84-.45-1.12-1.14-1.98-2.04-2.6-.91-.62-2-.93-3.28-.93s-2.38.31-3.28.93c-.91.62-1.61,1.49-2.11,2.6-.45,1.07-.68,2.36-.68,3.84v.12Z"/>
  <path class="cls-6" d="m187.01,44.02c-.45,0-.83-.14-1.12-.43s-.43-.66-.43-1.12V1.55c0-.45.15-.83.43-1.12.29-.29.66-.43,1.12-.43h6.19c.41,0,.76.14,1.05.43.29.29.43.66.43,1.12v40.92c0,.45-.14.83-.43,1.12-.29.29-.64.43-1.05.43h-6.19Z"/>
</svg>