<svg width="224" height="124" viewBox="0 0 224 124" fill="none" xmlns="http://www.w3.org/2000/svg">
<path d="M15.5488 85.02C15.1358 85.02 14.7641 84.8753 14.4337 84.586C14.1446 84.2967 14 83.9247 14 83.47V43.17C14 42.7153 14.1446 42.3433 14.4337 42.054C14.7641 41.7647 15.1358 41.62 15.5488 41.62H21.3102C21.9298 41.62 22.3841 41.7853 22.6732 42.116C23.0036 42.4467 23.2307 42.6947 23.3546 42.86L34.7537 63.878L46.2766 42.86C46.3592 42.6947 46.545 42.4467 46.8341 42.116C47.1646 41.7853 47.6395 41.62 48.259 41.62H54.0205C54.4748 41.62 54.8465 41.7647 55.1356 42.054C55.4247 42.3433 55.5693 42.7153 55.5693 43.17V83.47C55.5693 83.9247 55.4247 84.2967 55.1356 84.586C54.8465 84.8753 54.4748 85.02 54.0205 85.02H47.7015C47.2885 85.02 46.9374 84.8753 46.6483 84.586C46.3592 84.2967 46.2146 83.9247 46.2146 83.47V58.422L38.3468 73.178C38.1403 73.55 37.8719 73.8807 37.5415 74.17C37.2111 74.4593 36.7774 74.604 36.2405 74.604H33.3288C32.7919 74.604 32.3582 74.4593 32.0278 74.17C31.6974 73.8807 31.4289 73.55 31.2224 73.178L23.3546 58.422V83.47C23.3546 83.9247 23.2101 84.2967 22.921 84.586C22.6319 84.8753 22.2808 85.02 21.8678 85.02H15.5488Z" fill="#0D051B"/>
<path d="M73.5559 85.64C71.367 85.64 69.4052 85.2267 67.6706 84.4C65.9359 83.532 64.5524 82.3747 63.5198 80.928C62.4873 79.4813 61.9711 77.8693 61.9711 76.092C61.9711 73.1573 63.1481 70.8427 65.5023 69.148C67.8977 67.4533 71.0366 66.296 74.9189 65.676L83.0345 64.498V63.382C83.0345 61.77 82.6628 60.53 81.9194 59.662C81.1759 58.794 79.875 58.36 78.0164 58.36C76.6535 58.36 75.559 58.6287 74.733 59.166C73.907 59.7033 73.2668 60.406 72.8125 61.274C72.4821 61.8113 72.0072 62.08 71.3876 62.08H65.5023C65.048 62.08 64.6969 61.956 64.4491 61.708C64.2013 61.4187 64.098 61.088 64.1393 60.716C64.1393 60.0133 64.4078 59.1867 64.9447 58.236C65.4816 57.2853 66.3076 56.3553 67.4228 55.446C68.5379 54.4953 69.9628 53.71 71.6974 53.09C73.432 52.47 75.559 52.16 78.0784 52.16C80.6803 52.16 82.9106 52.47 84.7691 53.09C86.6276 53.71 88.1145 54.578 89.2296 55.694C90.3447 56.81 91.1707 58.112 91.7076 59.6C92.2446 61.0467 92.513 62.6173 92.513 64.312V83.47C92.513 83.9247 92.3685 84.2967 92.0794 84.586C91.7903 84.8753 91.4185 85.02 90.9642 85.02H84.893C84.48 85.02 84.1289 84.8753 83.8398 84.586C83.5507 84.2967 83.4062 83.9247 83.4062 83.47V81.176C82.8693 81.9613 82.1465 82.7053 81.2379 83.408C80.3293 84.0693 79.2348 84.6067 77.9545 85.02C76.7154 85.4333 75.2493 85.64 73.5559 85.64ZM76.034 79.192C77.3969 79.192 78.6153 78.9027 79.6891 78.324C80.7629 77.7453 81.6096 76.8567 82.2291 75.658C82.8486 74.4593 83.1584 72.9507 83.1584 71.132V70.078L77.3969 71.008C75.1667 71.38 73.5353 71.938 72.5028 72.682C71.4702 73.426 70.954 74.3353 70.954 75.41C70.954 76.1953 71.1811 76.8773 71.6354 77.456C72.1311 78.0347 72.7712 78.4687 73.5559 78.758C74.3407 79.0473 75.1667 79.192 76.034 79.192Z" fill="#0D051B"/>
<path d="M101.501 85.02C101.088 85.02 100.737 84.8753 100.448 84.586C100.159 84.2967 100.014 83.9247 100.014 83.47V54.33C100.014 53.9167 100.159 53.5653 100.448 53.276C100.737 52.9453 101.088 52.78 101.501 52.78H107.572C107.985 52.78 108.336 52.9453 108.625 53.276C108.956 53.5653 109.121 53.9167 109.121 54.33V56.81C110.153 55.5287 111.413 54.5367 112.9 53.834C114.428 53.1313 116.183 52.78 118.166 52.78H120.83C121.243 52.78 121.594 52.9247 121.883 53.214C122.172 53.5033 122.316 53.8753 122.316 54.33V59.662C122.316 60.1167 122.172 60.4887 121.883 60.778C121.594 61.0673 121.243 61.212 120.83 61.212H115.378C113.561 61.212 112.136 61.7287 111.103 62.762C110.071 63.754 109.554 65.18 109.554 67.04V83.47C109.554 83.9247 109.41 84.2967 109.121 84.586C108.832 84.8753 108.46 85.02 108.006 85.02H101.501Z" fill="#0D051B"/>
<path d="M138.335 85.02C137.716 85.02 137.241 84.8753 136.91 84.586C136.621 84.2553 136.373 83.8833 136.167 83.47L124.52 54.702C124.437 54.5367 124.396 54.3507 124.396 54.144C124.396 53.772 124.52 53.462 124.768 53.214C125.057 52.9247 125.387 52.78 125.759 52.78H131.768C132.305 52.78 132.698 52.9247 132.945 53.214C133.234 53.5033 133.42 53.772 133.503 54.02L141.123 74.48L148.743 54.02C148.867 53.772 149.053 53.5033 149.301 53.214C149.59 52.9247 149.982 52.78 150.478 52.78H156.487C156.859 52.78 157.168 52.9247 157.416 53.214C157.705 53.462 157.85 53.772 157.85 54.144C157.85 54.3507 157.829 54.5367 157.788 54.702L146.079 83.47C145.914 83.8833 145.666 84.2553 145.336 84.586C145.005 84.8753 144.53 85.02 143.911 85.02H138.335Z" fill="#0D051B"/>
<path d="M176.277 85.64C171.528 85.64 167.749 84.3173 164.94 81.672C162.173 79.0267 160.707 75.1827 160.542 70.14C160.542 69.8093 160.542 69.3753 160.542 68.838C160.542 68.2593 160.542 67.8047 160.542 67.474C160.707 64.2913 161.43 61.5633 162.71 59.29C163.99 56.9753 165.787 55.2187 168.1 54.02C170.413 52.78 173.118 52.16 176.215 52.16C179.685 52.16 182.576 52.8833 184.889 54.33C187.243 55.7353 188.998 57.678 190.154 60.158C191.352 62.5967 191.951 65.4073 191.951 68.59V70.016C191.951 70.4293 191.786 70.7807 191.455 71.07C191.166 71.3593 190.815 71.504 190.402 71.504H170.144C170.144 71.5453 170.144 71.628 170.144 71.752C170.144 71.8347 170.144 71.9173 170.144 72C170.185 73.3227 170.433 74.542 170.888 75.658C171.383 76.7327 172.065 77.6007 172.932 78.262C173.841 78.9233 174.914 79.254 176.153 79.254C177.186 79.254 178.033 79.1093 178.693 78.82C179.354 78.5307 179.891 78.1793 180.304 77.766C180.758 77.3527 181.089 77.0013 181.295 76.712C181.667 76.2987 181.956 76.0507 182.163 75.968C182.411 75.844 182.782 75.782 183.278 75.782H189.721C190.134 75.782 190.464 75.906 190.712 76.154C191.001 76.3607 191.125 76.6707 191.084 77.084C191.042 77.7453 190.691 78.572 190.031 79.564C189.411 80.5147 188.482 81.4653 187.243 82.416C186.004 83.3253 184.455 84.09 182.596 84.71C180.779 85.33 178.673 85.64 176.277 85.64ZM170.144 65.862H182.287V65.738C182.287 64.25 182.039 62.9687 181.543 61.894C181.089 60.778 180.407 59.91 179.499 59.29C178.59 58.67 177.496 58.36 176.215 58.36C174.935 58.36 173.841 58.67 172.932 59.29C172.023 59.91 171.321 60.778 170.826 61.894C170.371 62.9687 170.144 64.25 170.144 65.738V65.862Z" fill="#0D051B"/>
<path d="M199.692 85.02C199.238 85.02 198.866 84.8753 198.577 84.586C198.288 84.2967 198.144 83.9247 198.144 83.47V42.55C198.144 42.0953 198.288 41.7233 198.577 41.434C198.866 41.1447 199.238 41 199.692 41H205.888C206.301 41 206.652 41.1447 206.941 41.434C207.23 41.7233 207.374 42.0953 207.374 42.55V83.47C207.374 83.9247 207.23 84.2967 206.941 84.586C206.652 84.8753 206.301 85.02 205.888 85.02H199.692Z" fill="#0D051B"/>
<path d="M16.8616 83.7C16.4485 83.7 16.0768 83.5553 15.7464 83.266C15.4573 82.9767 15.3128 82.6047 15.3128 82.15V41.85C15.3128 41.3953 15.4573 41.0233 15.7464 40.734C16.0768 40.4447 16.4485 40.3 16.8616 40.3H22.623C23.2425 40.3 23.6968 40.4653 23.9859 40.796C24.3164 41.1267 24.5435 41.3747 24.6674 41.54L36.0664 62.558L47.5894 41.54C47.672 41.3747 47.8578 41.1267 48.1469 40.796C48.4773 40.4653 48.9523 40.3 49.5718 40.3H55.3333C55.7876 40.3 56.1593 40.4447 56.4484 40.734C56.7375 41.0233 56.882 41.3953 56.882 41.85V82.15C56.882 82.6047 56.7375 82.9767 56.4484 83.266C56.1593 83.5553 55.7876 83.7 55.3333 83.7H49.0142C48.6012 83.7 48.2502 83.5553 47.9611 83.266C47.672 82.9767 47.5274 82.6047 47.5274 82.15V57.102L39.6596 71.858C39.4531 72.23 39.1846 72.5607 38.8542 72.85C38.5238 73.1393 38.0902 73.284 37.5533 73.284H34.6416C34.1046 73.284 33.671 73.1393 33.3406 72.85C33.0102 72.5607 32.7417 72.23 32.5352 71.858L24.6674 57.102V82.15C24.6674 82.6047 24.5229 82.9767 24.2338 83.266C23.9446 83.5553 23.5936 83.7 23.1806 83.7H16.8616Z" fill="url(#paint0_linear_27_104)"/>
<path d="M74.8687 84.32C72.6798 84.32 70.718 83.9067 68.9833 83.08C67.2487 82.212 65.8651 81.0547 64.8326 79.608C63.8001 78.1613 63.2838 76.5493 63.2838 74.772C63.2838 71.8373 64.4609 69.5227 66.8151 67.828C69.2105 66.1333 72.3494 64.976 76.2316 64.356L84.3472 63.178V62.062C84.3472 60.45 83.9755 59.21 83.2321 58.342C82.4887 57.474 81.1877 57.04 79.3292 57.04C77.9663 57.04 76.8718 57.3087 76.0458 57.846C75.2198 58.3833 74.5796 59.086 74.1253 59.954C73.7949 60.4913 73.3199 60.76 72.7004 60.76H66.8151C66.3607 60.76 66.0097 60.636 65.7619 60.388C65.5141 60.0987 65.4108 59.768 65.4521 59.396C65.4521 58.6933 65.7206 57.8667 66.2575 56.916C66.7944 55.9653 67.6204 55.0353 68.7355 54.126C69.8507 53.1753 71.2755 52.39 73.0102 51.77C74.7448 51.15 76.8718 50.84 79.3911 50.84C81.9931 50.84 84.2233 51.15 86.0819 51.77C87.9404 52.39 89.4272 53.258 90.5424 54.374C91.6575 55.49 92.4835 56.792 93.0204 58.28C93.5573 59.7267 93.8258 61.2973 93.8258 62.992V82.15C93.8258 82.6047 93.6812 82.9767 93.3921 83.266C93.103 83.5553 92.7313 83.7 92.277 83.7H86.2058C85.7928 83.7 85.4417 83.5553 85.1526 83.266C84.8635 82.9767 84.719 82.6047 84.719 82.15V79.856C84.182 80.6413 83.4593 81.3853 82.5507 82.088C81.642 82.7493 80.5476 83.2867 79.2672 83.7C78.0282 84.1133 76.562 84.32 74.8687 84.32ZM77.3468 77.872C78.7097 77.872 79.9281 77.5827 81.0019 77.004C82.0757 76.4253 82.9224 75.5367 83.5419 74.338C84.1614 73.1393 84.4712 71.6307 84.4712 69.812V68.758L78.7097 69.688C76.4794 70.06 74.8481 70.618 73.8155 71.362C72.783 72.106 72.2668 73.0153 72.2668 74.09C72.2668 74.8753 72.4939 75.5573 72.9482 76.136C73.4438 76.7147 74.084 77.1487 74.8687 77.438C75.6534 77.7273 76.4794 77.872 77.3468 77.872Z" fill="url(#paint1_linear_27_104)"/>
<path d="M102.814 83.7C102.401 83.7 102.049 83.5553 101.76 83.266C101.471 82.9767 101.327 82.6047 101.327 82.15V53.01C101.327 52.5967 101.471 52.2453 101.76 51.956C102.049 51.6253 102.401 51.46 102.814 51.46H108.885C109.298 51.46 109.649 51.6253 109.938 51.956C110.268 52.2453 110.434 52.5967 110.434 53.01V55.49C111.466 54.2087 112.726 53.2167 114.213 52.514C115.741 51.8113 117.496 51.46 119.478 51.46H122.142C122.555 51.46 122.906 51.6047 123.196 51.894C123.485 52.1833 123.629 52.5553 123.629 53.01V58.342C123.629 58.7967 123.485 59.1687 123.196 59.458C122.906 59.7473 122.555 59.892 122.142 59.892H116.691C114.873 59.892 113.449 60.4087 112.416 61.442C111.383 62.434 110.867 63.86 110.867 65.72V82.15C110.867 82.6047 110.723 82.9767 110.434 83.266C110.144 83.5553 109.773 83.7 109.318 83.7H102.814Z" fill="url(#paint2_linear_27_104)"/>
<path d="M139.648 83.7C139.028 83.7 138.553 83.5553 138.223 83.266C137.934 82.9353 137.686 82.5633 137.48 82.15L125.833 53.382C125.75 53.2167 125.709 53.0307 125.709 52.824C125.709 52.452 125.833 52.142 126.081 51.894C126.37 51.6047 126.7 51.46 127.072 51.46H133.081C133.618 51.46 134.01 51.6047 134.258 51.894C134.547 52.1833 134.733 52.452 134.816 52.7L142.436 73.16L150.056 52.7C150.18 52.452 150.365 52.1833 150.613 51.894C150.902 51.6047 151.295 51.46 151.79 51.46H157.8C158.171 51.46 158.481 51.6047 158.729 51.894C159.018 52.142 159.163 52.452 159.163 52.824C159.163 53.0307 159.142 53.2167 159.101 53.382L147.392 82.15C147.227 82.5633 146.979 82.9353 146.648 83.266C146.318 83.5553 145.843 83.7 145.224 83.7H139.648Z" fill="url(#paint3_linear_27_104)"/>
<path d="M177.59 84.32C172.841 84.32 169.062 82.9973 166.253 80.352C163.486 77.7067 162.02 73.8627 161.855 68.82C161.855 68.4893 161.855 68.0553 161.855 67.518C161.855 66.9393 161.855 66.4847 161.855 66.154C162.02 62.9713 162.742 60.2433 164.023 57.97C165.303 55.6553 167.1 53.8987 169.413 52.7C171.725 51.46 174.431 50.84 177.528 50.84C180.997 50.84 183.889 51.5633 186.201 53.01C188.555 54.4153 190.311 56.358 191.467 58.838C192.665 61.2767 193.264 64.0873 193.264 67.27V68.696C193.264 69.1093 193.099 69.4607 192.768 69.75C192.479 70.0393 192.128 70.184 191.715 70.184H171.457C171.457 70.2253 171.457 70.308 171.457 70.432C171.457 70.5147 171.457 70.5973 171.457 70.68C171.498 72.0027 171.746 73.222 172.2 74.338C172.696 75.4127 173.377 76.2807 174.245 76.942C175.153 77.6033 176.227 77.934 177.466 77.934C178.499 77.934 179.345 77.7893 180.006 77.5C180.667 77.2107 181.204 76.8593 181.617 76.446C182.071 76.0327 182.402 75.6813 182.608 75.392C182.98 74.9787 183.269 74.7307 183.475 74.648C183.723 74.524 184.095 74.462 184.591 74.462H191.034C191.447 74.462 191.777 74.586 192.025 74.834C192.314 75.0407 192.438 75.3507 192.396 75.764C192.355 76.4253 192.004 77.252 191.343 78.244C190.724 79.1947 189.795 80.1453 188.555 81.096C187.316 82.0053 185.768 82.77 183.909 83.39C182.092 84.01 179.986 84.32 177.59 84.32ZM171.457 64.542H183.599V64.418C183.599 62.93 183.352 61.6487 182.856 60.574C182.402 59.458 181.72 58.59 180.812 57.97C179.903 57.35 178.809 57.04 177.528 57.04C176.248 57.04 175.153 57.35 174.245 57.97C173.336 58.59 172.634 59.458 172.138 60.574C171.684 61.6487 171.457 62.93 171.457 64.418V64.542Z" fill="url(#paint4_linear_27_104)"/>
<path d="M201.005 83.7C200.551 83.7 200.179 83.5553 199.89 83.266C199.601 82.9767 199.456 82.6047 199.456 82.15V41.23C199.456 40.7753 199.601 40.4033 199.89 40.114C200.179 39.8247 200.551 39.68 201.005 39.68H207.2C207.613 39.68 207.964 39.8247 208.254 40.114C208.543 40.4033 208.687 40.7753 208.687 41.23V82.15C208.687 82.6047 208.543 82.9767 208.254 83.266C207.964 83.5553 207.613 83.7 207.2 83.7H201.005Z" fill="url(#paint5_linear_27_104)"/>
<defs>
<linearGradient id="paint0_linear_27_104" x1="15.3128" y1="84.32" x2="34.8801" y2="-0.442946" gradientUnits="userSpaceOnUse">
<stop stop-color="#280F50"/>
<stop offset="1" stop-color="#641AAD"/>
</linearGradient>
<linearGradient id="paint1_linear_27_104" x1="15.3128" y1="84.32" x2="34.8801" y2="-0.442946" gradientUnits="userSpaceOnUse">
<stop stop-color="#280F50"/>
<stop offset="1" stop-color="#641AAD"/>
</linearGradient>
<linearGradient id="paint2_linear_27_104" x1="15.3128" y1="84.32" x2="34.8801" y2="-0.442946" gradientUnits="userSpaceOnUse">
<stop stop-color="#280F50"/>
<stop offset="1" stop-color="#641AAD"/>
</linearGradient>
<linearGradient id="paint3_linear_27_104" x1="15.3128" y1="84.32" x2="34.8801" y2="-0.442946" gradientUnits="userSpaceOnUse">
<stop stop-color="#280F50"/>
<stop offset="1" stop-color="#641AAD"/>
</linearGradient>
<linearGradient id="paint4_linear_27_104" x1="15.3128" y1="84.32" x2="34.8801" y2="-0.442946" gradientUnits="userSpaceOnUse">
<stop stop-color="#280F50"/>
<stop offset="1" stop-color="#641AAD"/>
</linearGradient>
<linearGradient id="paint5_linear_27_104" x1="15.3128" y1="84.32" x2="34.8801" y2="-0.442946" gradientUnits="userSpaceOnUse">
<stop stop-color="#280F50"/>
<stop offset="1" stop-color="#641AAD"/>
</linearGradient>
</defs>
</svg>
