<svg width="44" height="44" viewBox="0 0 44 44" fill="none" xmlns="http://www.w3.org/2000/svg">
<rect width="44" height="44" rx="8" fill="#FBFBFB"/>
<path d="M5 7H11.7635L20.8212 30.1875H21.1788L30.2365 7H37V39H31.6965V17.0156H31.4134L22.9814 38.9063H19.0186L10.5866 16.9688H10.3035V39H5V7Z" fill="#101820"/>
<path d="M6 6H12.7635L21.8212 29.1875H22.1788L31.2365 6H38V38H32.6965V16.0156H32.4134L23.9814 37.9063H20.0186L11.5866 15.9688H11.3035V38H6V6Z" fill="url(#paint0_linear_7_163)"/>
<path d="M41 16H3V24.25L5.81481 27H17.0741L19.1132 25.6719C20.4403 24.8075 22.1523 24.8075 23.4793 25.6719L25.5185 27H38.1852L41 24.25V16Z" fill="#6A3AE0" fill-opacity="0.3" stroke="#6A3AE0"/>
<defs>
<linearGradient id="paint0_linear_7_163" x1="2.5" y1="53" x2="43.5" y2="12" gradientUnits="userSpaceOnUse">
<stop stop-color="#400404"/>
<stop offset="1" stop-color="#7B2020"/>
</linearGradient>
</defs>
</svg>
